<svg xmlns="http://www.w3.org/2000/svg" xmlns:xlink="http://www.w3.org/1999/xlink" width="100" height="25" viewBox="0 0 100 25">
    <defs>
        <path id="a" d="M.207.275h69.557v18.312H.207z"/>
        <path id="c" d="M0 .286h25.062V25H0z"/>
    </defs>
    <g fill="none" fill-rule="evenodd">
        <g transform="translate(30.047 4.63)">
            <mask id="b" fill="#fff">
                <use xlink:href="#a"/>
            </mask>
            <path fill="#3F3A39" d="M28.586 16.111c-.949 2.07-2.513 2.34-3.211 2.42-.734.083-1.52.05-1.52.05v-1.693c1.392 0 2.151.108 2.972-1.5l.557-1.393L22.251 3.92h3.279l3.366 6.697 2.976-6.696h2.131s-4.467 10.12-5.417 12.19M16.61 13.62c-1.358 0-2.333-.988-2.333-2.447s1.303-2.318 2.491-2.318c.599 0 1.17.163 1.39.35v3.74c-.383.327-.829.675-1.548.675m-.133-9.698c-2.367 0-3.582.574-3.582.574l.29.866s.89-.408 2.637-.408c1.94 0 2.336.93 2.336 2.197l-.026.567c-.414-.121-1.387-.28-2.382-.28-1.48 0-3.923.9-3.923 3.836 0 2.798 2.152 3.709 3.68 3.709 1.26 0 2.028-.384 2.65-.764v.574h3.125V7.15c0-2.417-2.437-3.229-4.805-3.229M3.335 8.374V1.758s.964.003 2.046.003c1.534 0 3.227 1.149 3.227 3.116 0 1.969-1.693 3.499-3.227 3.499-1.488 0-2.046-.002-2.046-.002m2.046-8.1H.941a.728.728 0 0 0-.734.724v13.795h3.128V9.857l2.046.001c3.027 0 5.77-1.862 5.77-5.017 0-3.154-2.743-4.566-5.77-4.566M64.348 16.11c-.95 2.07-2.514 2.34-3.212 2.42-.734.083-1.52.05-1.52.05v-1.693c1.393 0 2.151.108 2.973-1.5l.556-1.393L58.013 3.92h3.278l3.366 6.697 2.977-6.696h2.13s-4.467 10.12-5.416 12.19M52.37 13.62c-1.358 0-2.333-.988-2.333-2.447s1.304-2.318 2.492-2.318c.598 0 1.168.163 1.39.35v3.74c-.384.327-.83.675-1.549.675m-.133-9.698c-2.367 0-3.581.574-3.581.574l.29.866s.89-.408 2.636-.408c1.94 0 2.336.93 2.336 2.197l-.025.567c-.416-.121-1.388-.28-2.383-.28-1.48 0-3.923.9-3.923 3.836 0 2.798 2.153 3.709 3.68 3.709 1.261 0 2.029-.384 2.651-.764v.574h3.125V7.15c0-2.417-2.438-3.229-4.806-3.229M39.096 8.374V1.758s.964.003 2.047.003c1.534 0 3.226 1.149 3.226 3.116 0 1.969-1.692 3.499-3.226 3.499-1.488 0-2.047-.002-2.047-.002m2.047-8.1H36.702a.728.728 0 0 0-.733.724v13.795h3.127V9.857l2.047.001c3.026 0 5.77-1.862 5.77-5.017 0-3.154-2.744-4.566-5.77-4.566" mask="url(#b)"/>
        </g>
        <g>
            <mask id="d" fill="#fff">
                <use xlink:href="#c"/>
            </mask>
            <path fill="#F03" d="M21.356.286H3.706C1.734.286.116 1.826.01 3.744c14.777-.411 21.965 4.659 20.837 9.713-1.016 4.551-5.705 6.296-13.324 6.869L6.383 25h14.973c2.039 0 3.706-1.644 3.706-3.654V3.94c0-2.01-1.667-3.654-3.706-3.654zm-1.401 13.193c.587-2.36-3.273-4.544-9.453-5.369l-2.244 9.205c5.18.242 11.065-1.296 11.697-3.836zM4.88 25H3.706C1.667 25 0 23.356 0 21.346V8.02c3.325-.331 6.427-.325 9.148-.064L4.88 25z" mask="url(#d)"/>
        </g>
    </g>
</svg>
