<svg width="16" height="17" viewBox="0 0 16 17" fill="none" xmlns="http://www.w3.org/2000/svg">
<path fill-rule="evenodd" clip-rule="evenodd" d="M12 12.5H12.6667C13.403 12.5 14 11.903 14 11.1667V3.83333C14 3.09695 13.403 2.5 12.6667 2.5H5.33333C4.59695 2.5 4 3.09695 4 3.83333V4.5H3.33333C2.59695 4.5 2 5.09695 2 5.83333V13.1667C2 13.903 2.59695 14.5 3.33333 14.5H10.6667C11.403 14.5 12 13.903 12 13.1667V12.5ZM12.6667 3.33333H5.33333C5.05719 3.33333 4.83333 3.55719 4.83333 3.83333V4.5H10.6667C11.403 4.5 12 5.09695 12 5.83333V11.6667H12.6667C12.9428 11.6667 13.1667 11.4428 13.1667 11.1667V3.83333C13.1667 3.55719 12.9428 3.33333 12.6667 3.33333ZM3.33333 5.33333H10.6667C10.9428 5.33333 11.1667 5.55719 11.1667 5.83333V13.1667C11.1667 13.4428 10.9428 13.6667 10.6667 13.6667H3.33333C3.05719 13.6667 2.83333 13.4428 2.83333 13.1667V5.83333C2.83333 5.55719 3.05719 5.33333 3.33333 5.33333Z" fill="white"/>
</svg>
